<svg id="Layer_1" xmlns="http://www.w3.org/2000/svg" viewBox="0 0 50 50"><polyline points="-.69 39.78 20.52 39.78 28.57 26.28" fill="none" fill-rule="evenodd" stroke="#faad3f" stroke-linecap="round" stroke-linejoin="round" stroke-width="4"/><polyline points="1.4 45.71 22.6 45.71 30.66 32.2" fill="none" fill-rule="evenodd" stroke="#d95a6b" stroke-linecap="round" stroke-linejoin="round" stroke-width="4"/><polyline points="-5.22 37.12 12.62 4.48 51.84 4.48 34.03 37.12 15.38 37.12" fill="#2e95b9" stroke="#2e95b9" stroke-miterlimit="10" stroke-width=".5"/><path d="m19.13,36.09c-2,0-3.89-.76-5.33-2.14l-1.09-1.05c-1.5-1.44-2.32-3.31-2.36-5.4-.04-2.08.72-4.05,2.14-5.53l4.41-4.56c1.46-1.52,3.44-2.36,5.58-2.36,2.01,0,3.91.76,5.35,2.14l1.64,1.57c.35.33.55.78.56,1.25,0,.47-.17.93-.5,1.28-.34.36-.8.56-1.29.56-.46,0-.9-.18-1.24-.51l-1.64-1.57c-.78-.75-1.8-1.16-2.89-1.16-1.15,0-2.22.45-3.01,1.28l-4.38,4.56c-.77.81-1.19,1.86-1.16,2.98s.48,2.16,1.28,2.93l1.09,1.05c.78.75,1.81,1.17,2.89,1.17,1.21-.02,2.25-.48,3.02-1.29l3.29-3.43c.34-.36.82-.56,1.3-.56.45,0,.86.17,1.16.48.34.33.54.77.55,1.25,0,.47-.17.93-.5,1.28l-3.29,3.43c-1.42,1.48-3.34,2.32-5.4,2.36h-.16Z" stroke-width="0"/><path d="m22.47,15.31c1.87,0,3.74.69,5.18,2.07l1.64,1.57c.62.6.64,1.55.04,2.18-.31.32-.71.48-1.11.48s-.76-.15-1.07-.44l-1.64-1.57c-.85-.82-1.96-1.23-3.06-1.23-1.17,0-2.33.45-3.2,1.35l-4.38,4.56c-.82.86-1.26,1.97-1.23,3.16.02,1.18.5,2.28,1.36,3.1l1.09,1.05c.83.8,1.91,1.23,3.06,1.23.03,0,.06,0,.09,0,1.18-.02,2.28-.5,3.1-1.36l3.29-3.43h0c.31-.33.72-.49,1.12-.49.36,0,.72.14.98.4.62.6.64,1.55.04,2.18l-3.29,3.43c-1.38,1.44-3.24,2.24-5.22,2.28-.05,0-.1,0-.16,0-1.93,0-3.75-.72-5.16-2.07l-1.09-1.05c-1.44-1.38-2.24-3.2-2.28-5.22-.04-2.02.68-3.91,2.07-5.35l4.41-4.56c1.46-1.52,3.43-2.29,5.4-2.29m0-.5c-2.2,0-4.25.87-5.76,2.44l-4.41,4.56c-1.47,1.53-2.25,3.56-2.21,5.71.04,2.16.89,4.09,2.44,5.57l1.09,1.05c1.48,1.42,3.44,2.21,5.5,2.21h.17c2.13-.05,4.11-.91,5.57-2.44l3.29-3.43c.38-.4.59-.92.58-1.46-.01-.54-.24-1.05-.63-1.43-.34-.35-.81-.54-1.33-.54-.55,0-1.09.23-1.48.64l-3.29,3.43c-.73.76-1.7,1.19-2.75,1.21h-.08c-1.02,0-1.98-.39-2.72-1.09l-1.09-1.05c-.76-.73-1.19-1.71-1.21-2.75-.02-1.05.37-2.04,1.09-2.8l4.38-4.56c.74-.77,1.75-1.2,2.83-1.2,1.02,0,1.99.39,2.72,1.09l1.64,1.57c.39.37.89.58,1.41.58.56,0,1.08-.23,1.47-.64.38-.4.59-.91.58-1.46-.01-.54-.24-1.05-.63-1.43l-1.64-1.57c-1.48-1.42-3.45-2.21-5.52-2.21h0Z" stroke-width="0"/><path d="m28.14,26.74c-2,0-3.89-.76-5.33-2.14l-1.64-1.57c-.35-.34-.55-.78-.56-1.25,0-.47.17-.93.51-1.28.34-.36.8-.56,1.29-.56.46,0,.9.18,1.24.51l1.64,1.57c.78.75,1.81,1.17,2.89,1.17,1.2-.02,2.24-.48,3.01-1.29l3.85-3.98c.77-.81,1.19-1.86,1.16-2.98-.02-1.11-.48-2.15-1.28-2.93l-1.09-1.05c-.78-.75-1.81-1.17-2.89-1.17-1.2.02-2.24.48-3.02,1.29l-2.77,2.88c-.34.36-.8.56-1.29.56-.46,0-.9-.18-1.24-.51-.35-.33-.55-.78-.56-1.25,0-.47.17-.93.5-1.28l2.77-2.88c1.42-1.48,3.34-2.32,5.4-2.36h.16c2,0,3.89.76,5.33,2.14l1.06,1.13c1.47,1.41,2.31,3.33,2.35,5.39.04,2.06-.72,4.01-2.14,5.49l-3.81,3.97c-1.42,1.48-3.34,2.32-5.4,2.36h-.16Z" stroke-width="0"/><path d="m30.91,6.51c1.93,0,3.75.72,5.16,2.07l1.06,1.12c1.44,1.38,2.24,3.24,2.28,5.22s-.68,3.87-2.07,5.31l-3.81,3.97c-1.38,1.44-3.24,2.24-5.22,2.28-.05,0-.1,0-.16,0-1.93,0-3.75-.72-5.16-2.07l-1.64-1.57c-.62-.6-.64-1.55-.04-2.18.31-.32.71-.48,1.11-.48.38,0,.76.15,1.07.44l1.64,1.57c.83.8,1.91,1.23,3.06,1.23.03,0,.06,0,.09,0,1.18-.02,2.28-.5,3.1-1.36l3.85-3.97c.82-.86,1.26-1.97,1.23-3.16-.02-1.18-.5-2.28-1.36-3.1l-1.09-1.05c-.83-.8-1.91-1.23-3.06-1.23-.03,0-.06,0-.09,0-1.18.02-2.28.5-3.1,1.36l-2.77,2.88c-.31.32-.71.48-1.11.48s-.76-.15-1.07-.44c-.62-.6-.64-1.55-.04-2.18l2.77-2.88c1.38-1.44,3.24-2.24,5.22-2.28.05,0,.11,0,.16,0m0-.5h-.17c-2.13.05-4.11.91-5.57,2.44l-2.77,2.88c-.38.4-.59.92-.58,1.46.01.54.24,1.05.63,1.43.39.37.89.58,1.41.58.56,0,1.08-.23,1.47-.64l2.77-2.88c.73-.76,1.7-1.19,2.75-1.21h.08c1.02,0,1.98.39,2.72,1.09l1.09,1.05c.76.73,1.19,1.7,1.21,2.75s-.37,2.04-1.09,2.8l-3.85,3.97c-.73.76-1.71,1.19-2.75,1.21h-.08c-1.02,0-1.98-.39-2.72-1.09l-1.64-1.57c-.39-.37-.89-.58-1.41-.58-.56,0-1.08.23-1.47.64-.38.4-.59.91-.58,1.46.01.54.24,1.05.63,1.43l1.64,1.57c1.48,1.42,3.44,2.21,5.5,2.21h.17c2.13-.04,4.11-.91,5.57-2.44l3.81-3.97c1.47-1.53,2.25-3.54,2.21-5.67-.04-2.13-.91-4.11-2.44-5.57l-1.04-1.11c-1.5-1.44-3.46-2.23-5.52-2.23h0Z" stroke-width="0"/><path d="m19.12,35.23c-2,0-3.89-.76-5.33-2.14l-1.09-1.05c-1.5-1.44-2.32-3.31-2.36-5.4-.04-2.08.72-4.05,2.14-5.53l4.42-4.56c1.46-1.52,3.44-2.36,5.58-2.36,2.01,0,3.91.76,5.35,2.14l1.64,1.57c.35.33.55.78.56,1.25,0,.47-.17.93-.5,1.28-.34.36-.8.56-1.29.56-.46,0-.9-.18-1.24-.51l-1.64-1.57c-.78-.75-1.8-1.16-2.89-1.16-1.15,0-2.22.45-3.01,1.28l-4.38,4.56c-.77.81-1.19,1.86-1.16,2.98.02,1.11.48,2.15,1.28,2.93l1.09,1.05c.78.75,1.81,1.17,2.89,1.17,1.2-.02,2.24-.48,3.02-1.28l3.29-3.43c.34-.36.82-.56,1.3-.56.45,0,.86.17,1.16.48.34.33.54.77.55,1.25.01.47-.17.93-.51,1.28l-3.29,3.43c-1.42,1.48-3.34,2.32-5.4,2.36h-.16Z" fill="#fff" stroke-width="0"/><path d="m22.48,14.45c1.87,0,3.74.69,5.18,2.07l1.64,1.57c.62.6.64,1.55.04,2.18-.31.32-.71.48-1.11.48s-.76-.15-1.07-.44l-1.64-1.57c-.85-.82-1.96-1.23-3.06-1.23-1.17,0-2.33.45-3.2,1.35l-4.38,4.56c-.82.86-1.26,1.97-1.23,3.16s.5,2.28,1.36,3.1l1.09,1.05c.83.8,1.91,1.23,3.06,1.23.03,0,.06,0,.09,0,1.18-.02,2.28-.5,3.1-1.36l3.29-3.43h0c.31-.33.72-.49,1.12-.49.36,0,.72.14.98.4.62.6.64,1.55.04,2.18l-3.29,3.43c-1.38,1.44-3.24,2.24-5.22,2.28-.05,0-.1,0-.16,0-1.93,0-3.75-.72-5.16-2.07l-1.09-1.05c-1.44-1.38-2.24-3.2-2.28-5.22-.04-2.02.68-3.91,2.07-5.35l4.41-4.56c1.46-1.52,3.43-2.29,5.4-2.29m0-.5c-2.2,0-4.25.87-5.76,2.44l-4.41,4.56c-1.47,1.53-2.25,3.56-2.21,5.71.04,2.16.89,4.09,2.44,5.57l1.09,1.05c1.48,1.42,3.44,2.21,5.5,2.21h.17c2.13-.05,4.11-.91,5.57-2.44l3.29-3.43c.38-.4.59-.92.58-1.46-.01-.54-.24-1.05-.63-1.43-.34-.35-.81-.54-1.33-.54-.55,0-1.09.23-1.48.64l-3.29,3.43c-.73.76-1.7,1.19-2.75,1.21h-.08c-1.02,0-1.98-.39-2.72-1.09l-1.09-1.05c-.76-.73-1.19-1.71-1.21-2.75-.02-1.05.37-2.04,1.09-2.8l4.38-4.56c.74-.77,1.75-1.2,2.83-1.2,1.02,0,1.99.39,2.72,1.09l1.64,1.57c.39.37.89.58,1.41.58.56,0,1.08-.23,1.47-.64.38-.4.59-.91.58-1.45-.01-.54-.24-1.05-.63-1.43l-1.64-1.57c-1.48-1.42-3.45-2.21-5.52-2.21h0Z" fill="#fff" stroke-width="0"/><path d="m28.14,25.88c-2,0-3.89-.76-5.33-2.14l-1.64-1.57c-.35-.33-.55-.78-.56-1.25,0-.47.17-.93.51-1.28.34-.36.8-.56,1.29-.56.46,0,.9.18,1.24.51l1.63,1.57c.78.75,1.81,1.17,2.89,1.17,1.21-.02,2.25-.48,3.02-1.29l3.85-3.98c.77-.8,1.19-1.86,1.16-2.98-.02-1.12-.48-2.16-1.28-2.93l-1.09-1.05c-.78-.75-1.81-1.17-2.89-1.17-1.2.02-2.24.48-3.02,1.28l-2.77,2.88c-.34.36-.8.56-1.29.56-.46,0-.9-.18-1.24-.51-.35-.33-.55-.78-.56-1.25,0-.47.17-.93.5-1.28l2.77-2.88c1.42-1.48,3.34-2.32,5.4-2.36h.16c2,0,3.89.76,5.33,2.14l1.07,1.13c1.47,1.41,2.31,3.33,2.35,5.39.04,2.06-.72,4.01-2.14,5.49l-3.81,3.97c-1.42,1.48-3.34,2.32-5.4,2.36h-.16Z" fill="#fff" stroke-width="0"/><path d="m30.91,5.65c1.93,0,3.75.72,5.16,2.07l1.06,1.12c1.44,1.38,2.24,3.24,2.28,5.22.04,1.98-.68,3.87-2.07,5.31l-3.81,3.97c-1.38,1.44-3.24,2.24-5.22,2.28-.05,0-.1,0-.16,0-1.93,0-3.75-.72-5.16-2.07l-1.64-1.57c-.62-.6-.64-1.55-.04-2.18.31-.32.71-.48,1.11-.48s.76.15,1.07.44l1.64,1.57c.83.8,1.91,1.23,3.06,1.23.03,0,.06,0,.09,0,1.18-.02,2.28-.5,3.1-1.36l3.85-3.97c.82-.86,1.26-1.97,1.23-3.16-.02-1.18-.5-2.28-1.36-3.1l-1.09-1.05c-.83-.8-1.91-1.23-3.06-1.23-.03,0-.06,0-.09,0-1.18.02-2.28.5-3.1,1.36l-2.77,2.88c-.31.32-.71.48-1.11.48s-.76-.15-1.07-.44c-.62-.6-.64-1.55-.04-2.18l2.77-2.88c1.38-1.44,3.24-2.24,5.22-2.28.05,0,.11,0,.16,0m0-.5h-.17c-2.13.05-4.11.91-5.57,2.44l-2.77,2.88c-.38.4-.59.92-.58,1.46.01.54.24,1.05.63,1.43.39.37.89.58,1.41.58.56,0,1.08-.23,1.47-.64l2.77-2.88c.73-.76,1.7-1.19,2.75-1.21h.08c1.02,0,1.98.39,2.72,1.09l1.09,1.05c.76.73,1.19,1.7,1.21,2.75.02,1.05-.37,2.04-1.09,2.8l-3.85,3.97c-.73.76-1.71,1.19-2.75,1.21h-.08c-1.02,0-1.98-.39-2.72-1.09l-1.64-1.57c-.39-.37-.89-.58-1.41-.58-.56,0-1.08.23-1.47.64-.38.4-.59.91-.58,1.45.01.54.24,1.05.63,1.43l1.64,1.57c1.48,1.42,3.44,2.21,5.5,2.21h.17c2.13-.05,4.11-.91,5.57-2.44l3.81-3.97c1.47-1.53,2.25-3.54,2.21-5.67-.04-2.13-.91-4.11-2.44-5.57l-1.04-1.11c-1.5-1.44-3.46-2.23-5.52-2.23h0Z" fill="#fff" stroke-width="0"/></svg>