<svg xmlns="http://www.w3.org/2000/svg" xmlns:xlink="http://www.w3.org/1999/xlink" width="45" height="45" viewBox="0 0 45 45">
  <defs>
    <clipPath id="clip-icon-events-calendar">
      <rect width="45" height="45"/>
    </clipPath>
  </defs>
  <g id="icon-events-calendar" clip-path="url(#clip-icon-events-calendar)">
    <rect width="45" height="45" fill="#fff"/>
    <path id="Path_234" data-name="Path 234" d="M0,0H35.722V-28.378L40-25.447V5H4.092Z" transform="translate(3 37)" fill="#b1b1b1"/>
    <rect id="Rectangle_50" data-name="Rectangle 50" width="36" height="8" transform="translate(3 8)" fill="#c80501"/>
    <rect id="Rectangle_51" data-name="Rectangle 51" width="4" height="6" rx="2" transform="translate(8 5)" fill="#fff"/>
    <rect id="Rectangle_52" data-name="Rectangle 52" width="4" height="6" rx="2" transform="translate(18 5)" fill="#fff"/>
    <rect id="Rectangle_53" data-name="Rectangle 53" width="4" height="6" rx="2" transform="translate(29 5)" fill="#fff"/>
    <g id="np_calendar_5620335_000000" transform="translate(-3.722 -5.15)">
      <path id="Path_176" data-name="Path 176" d="M21.247,40.668H18.294a2.159,2.159,0,0,0-2.157,2.157v2.953a2.16,2.16,0,0,0,2.157,2.157h2.953A2.16,2.16,0,0,0,23.4,45.778V42.825A2.159,2.159,0,0,0,21.247,40.668Zm.271,5.11a.271.271,0,0,1-.271.271H18.294a.271.271,0,0,1-.271-.271V42.825a.271.271,0,0,1,.271-.271h2.953a.271.271,0,0,1,.271.271Z" transform="translate(-5.885 -17.418)"/>
      <path id="Path_177" data-name="Path 177" d="M42.922,40.555H39.969a2.159,2.159,0,0,0-2.157,2.157v2.953a2.16,2.16,0,0,0,2.157,2.157h2.953a2.16,2.16,0,0,0,2.157-2.157V42.712A2.159,2.159,0,0,0,42.922,40.555Zm.271,5.11a.271.271,0,0,1-.271.271H39.969a.271.271,0,0,1-.271-.271V42.712a.271.271,0,0,1,.271-.271h2.953a.271.271,0,0,1,.271.271Z" transform="translate(-17.339 -17.358)"/>
      <path id="Path_178" data-name="Path 178" d="M61.38,47.935h2.953a2.161,2.161,0,0,0,2.159-2.157V42.825a2.16,2.16,0,0,0-2.159-2.157H61.38a2.159,2.159,0,0,0-2.157,2.157v2.953A2.16,2.16,0,0,0,61.38,47.935Zm-.271-5.11a.271.271,0,0,1,.271-.271h2.953a.273.273,0,0,1,.273.271v2.953a.272.272,0,0,1-.273.271H61.38a.271.271,0,0,1-.271-.271Z" transform="translate(-28.653 -17.418)"/>
      <path id="Path_179" data-name="Path 179" d="M21.247,61.391H18.294a2.16,2.16,0,0,0-2.157,2.157V66.5a2.161,2.161,0,0,0,2.157,2.159h2.953A2.16,2.16,0,0,0,23.4,66.5V63.548A2.159,2.159,0,0,0,21.247,61.391Zm.271,5.11a.273.273,0,0,1-.271.273H18.294a.272.272,0,0,1-.271-.273V63.548a.271.271,0,0,1,.271-.271h2.953a.271.271,0,0,1,.271.271Z" transform="translate(-5.885 -28.369)"/>
      <path id="Path_180" data-name="Path 180" d="M42.922,61.277H39.969a2.16,2.16,0,0,0-2.157,2.157v2.953a2.16,2.16,0,0,0,2.157,2.157h2.953a2.16,2.16,0,0,0,2.157-2.157V63.434a2.16,2.16,0,0,0-2.157-2.157Zm.271,5.112a.271.271,0,0,1-.271.271H39.969a.271.271,0,0,1-.271-.271V63.436a.271.271,0,0,1,.271-.271h2.953a.271.271,0,0,1,.271.271Z" transform="translate(-17.339 -28.309)"/>
      <path id="Path_181" data-name="Path 181" d="M47.155,15.872,42.8,11.643c-.02-.018-.042-.033-.064-.05a.717.717,0,0,0-.074-.057.954.954,0,0,0-.1-.057c-.018-.009-.037-.02-.055-.028a.858.858,0,0,0-.138-.042l-.037-.011a.923.923,0,0,0-.214-.018l-4.406,0v-.271a3.4,3.4,0,0,0-6.8,0v.271H27.444v-.271a3.4,3.4,0,0,0-6.8,0v.271H17.18v-.271a3.4,3.4,0,1,0-6.8,0v.271H5.944A.943.943,0,0,0,5,12.321v30.1c0,.006,0,.009,0,.015a.951.951,0,0,0,.162.516.976.976,0,0,0,.12.142s0,0,0,0l4.355,4.229a.945.945,0,0,0,.658.267H46.5a1.044,1.044,0,0,0,.186-.018c.035-.007.068-.02.1-.031a.515.515,0,0,0,.076-.024,1,1,0,0,0,.158-.085l.007-.006a1.094,1.094,0,0,0,.142-.118l.006,0c.015-.015.026-.033.041-.05s.05-.057.072-.09a.828.828,0,0,0,.042-.079.7.7,0,0,0,.042-.083.825.825,0,0,0,.029-.1c.007-.028.017-.053.022-.081s.009-.081.013-.122a.546.546,0,0,0,.006-.057l0-30.1a.94.94,0,0,0-.286-.676Zm-1.6,28.548-2.466-2.4V14.551l.291.282v5.152a.943.943,0,1,0,1.886,0V16.666l.289.282ZM6.887,21.658H41.2v19.82H6.887ZM32.793,11.1a1.514,1.514,0,0,1,3.028,0v2.424a1.514,1.514,0,1,1-3.028,0ZM24.045,9.593a1.516,1.516,0,0,1,1.514,1.514V12.3c0,.007,0,.015,0,.022s0,.015,0,.022v1.188a1.514,1.514,0,1,1-3.028,0V12.343c0-.007,0-.015,0-.022s0-.015,0-.022V11.107A1.515,1.515,0,0,1,24.045,9.593Zm-10.264,0A1.516,1.516,0,0,1,15.3,11.107v2.426a1.514,1.514,0,0,1-3.028,0V11.1a1.516,1.516,0,0,1,1.514-1.512Zm-3.4,3.671v.269a3.4,3.4,0,0,0,6.8,0v-.269h3.463v.269a3.4,3.4,0,0,0,6.8,0v-.269H30.91v.269a3.4,3.4,0,0,0,6.8,0v-.269h3.5v6.51l-34.321,0V13.264Zm.111,32.261h3.756a.943.943,0,1,0,0-1.886H8.666a.98.98,0,0,0-.1.011l-.293-.286H41.763l2.411,2.343H10.681Z"/>
      <path id="Path_182" data-name="Path 182" d="M66.62,60.263l-.932.888a2.135,2.135,0,0,0-1.356-.494H61.38a2.16,2.16,0,0,0-2.157,2.157v2.953a2.161,2.161,0,0,0,2.157,2.159h2.953a2.162,2.162,0,0,0,2.159-2.159V62.991l1.431-1.363a.943.943,0,1,0-1.3-1.365Zm-2.015,5.5a.273.273,0,0,1-.273.273H61.38a.272.272,0,0,1-.271-.273V62.815a.271.271,0,0,1,.271-.271h2.846L62.98,63.73l-.149-.151A.943.943,0,1,0,61.485,64.9l.8.814a.943.943,0,0,0,1.324.024l.995-.947Z" transform="translate(-28.653 -27.636)"/>
    </g>
  </g>
</svg>
