<svg xmlns="http://www.w3.org/2000/svg" xmlns:xlink="http://www.w3.org/1999/xlink" width="45" height="45" viewBox="0 0 45 45">
  <defs>
    <clipPath id="clip-icon-display-content">
      <rect width="45" height="45"/>
    </clipPath>
  </defs>
  <g id="icon-display-content" clip-path="url(#clip-icon-display-content)">
    <rect width="45" height="45" fill="#fff"/>
    <rect id="Rectangle_32" data-name="Rectangle 32" width="20" height="17" transform="translate(0 3)" fill="#feed45"/>
    <path id="Rectangle_32_-_Outline" data-name="Rectangle 32 - Outline" d="M1,1V16H19V1H1M0,0H20V17H0Z" transform="translate(0 3)" fill="#707070"/>
    <rect id="Rectangle_35" data-name="Rectangle 35" width="20" height="17" transform="translate(0 3)" fill="#feed45"/>
    <path id="Rectangle_35_-_Outline" data-name="Rectangle 35 - Outline" d="M1,1V16H19V1H1M0,0H20V17H0Z" transform="translate(0 3)" fill="#707070"/>
    <rect id="Rectangle_36" data-name="Rectangle 36" width="20" height="17" transform="translate(0 25)" fill="#171717"/>
    <path id="Rectangle_36_-_Outline" data-name="Rectangle 36 - Outline" d="M1,1V16H19V1H1M0,0H20V17H0Z" transform="translate(0 25)" fill="#707070"/>
    <rect id="Rectangle_34" data-name="Rectangle 34" width="19" height="17" transform="translate(26 3)" fill="#e82d2a"/>
    <path id="Rectangle_34_-_Outline" data-name="Rectangle 34 - Outline" d="M1,1V16H18V1H1M0,0H19V17H0Z" transform="translate(26 3)" fill="#707070"/>
    <rect id="Rectangle_37" data-name="Rectangle 37" width="19" height="17" transform="translate(26 25)" fill="#970301"/>
    <path id="Rectangle_37_-_Outline" data-name="Rectangle 37 - Outline" d="M1,1V16H18V1H1M0,0H19V17H0Z" transform="translate(26 25)" fill="#707070"/>
    <g id="Group_15" data-name="Group 15" transform="translate(25.554 31.164)" opacity="0.616" style="mix-blend-mode: multiply;isolation: isolate">
      <g id="Ellipse_1" data-name="Ellipse 1" opacity="0.624">
        <ellipse id="Ellipse_1-2" data-name="Ellipse 1" cx="3.5" cy="4" rx="3.5" ry="4" transform="translate(4.446 -0.164)" fill="#fff"/>
        <path id="Ellipse_1_-_Outline" data-name="Ellipse 1 - Outline" d="M3.5,1A2.788,2.788,0,0,0,1,4,2.788,2.788,0,0,0,3.5,7,2.788,2.788,0,0,0,6,4,2.788,2.788,0,0,0,3.5,1m0-1A3.775,3.775,0,0,1,7,4,3.775,3.775,0,0,1,3.5,8,3.775,3.775,0,0,1,0,4,3.775,3.775,0,0,1,3.5,0Z" transform="translate(4.446 -0.164)" fill="#707070"/>
      </g>
      <path id="Polygon_2" data-name="Polygon 2" d="M5.639,1.457a1,1,0,0,1,1.722,0l4.748,8.034A1,1,0,0,1,11.248,11h-9.5A1,1,0,0,1,.892,9.491Z" transform="translate(5.446 -0.164)" fill="#535353"/>
      <path id="Polygon_2_-_Outline" data-name="Polygon 2 - Outline" d="M6.5,1.966h0L1.752,10h9.5L6.5,1.966m0-1a.991.991,0,0,1,.861.491l4.748,8.034A1,1,0,0,1,11.248,11h-9.5A1,1,0,0,1,.892,9.491L5.639,1.457A.991.991,0,0,1,6.5.966Z" transform="translate(5.446 -0.164)" fill="#707070"/>
      <g id="Polygon_1" data-name="Polygon 1" opacity="0.996">
        <path id="Polygon_1-2" data-name="Polygon 1" d="M6.247.86a1,1,0,0,1,1.505,0l4.8,5.481A1,1,0,0,1,11.8,8H2.2a1,1,0,0,1-.753-1.659Z" transform="translate(1.446 2.836)" fill="#fff"/>
        <path id="Polygon_1_-_Outline" data-name="Polygon 1 - Outline" d="M7,1.519H7L2.2,7H11.8L7,1.519H7m0-1A1,1,0,0,1,7.753.86l4.8,5.481A1,1,0,0,1,11.8,8H2.2a1,1,0,0,1-.753-1.658L6.247.86A1,1,0,0,1,7,.519Z" transform="translate(1.446 2.836)" fill="#707070"/>
      </g>
      <rect id="Rectangle_25" data-name="Rectangle 25" width="19" height="1" rx="0.5" transform="translate(0.446 9.836)" fill="#727272"/>
    </g>
    <g id="Group_25" data-name="Group 25" transform="translate(-0.446 31.164)" opacity="0.616" style="mix-blend-mode: exclusion;isolation: isolate">
      <g id="Ellipse_1-3" data-name="Ellipse 1" opacity="0.624">
        <ellipse id="Ellipse_1-4" data-name="Ellipse 1" cx="3.5" cy="4" rx="3.5" ry="4" transform="translate(4.446 -0.164)" fill="#fff"/>
        <path id="Ellipse_1_-_Outline-2" data-name="Ellipse 1 - Outline" d="M3.5,1A2.788,2.788,0,0,0,1,4,2.788,2.788,0,0,0,3.5,7,2.788,2.788,0,0,0,6,4,2.788,2.788,0,0,0,3.5,1m0-1A3.775,3.775,0,0,1,7,4,3.775,3.775,0,0,1,3.5,8,3.775,3.775,0,0,1,0,4,3.775,3.775,0,0,1,3.5,0Z" transform="translate(4.446 -0.164)" fill="#707070"/>
      </g>
      <path id="Polygon_2-2" data-name="Polygon 2" d="M5.639,1.457a1,1,0,0,1,1.722,0l4.748,8.034A1,1,0,0,1,11.248,11h-9.5A1,1,0,0,1,.892,9.491Z" transform="translate(5.446 -0.164)" fill="#535353"/>
      <path id="Polygon_2_-_Outline-2" data-name="Polygon 2 - Outline" d="M6.5,1.966h0L1.752,10h9.5L6.5,1.966m0-1a.991.991,0,0,1,.861.491l4.748,8.034A1,1,0,0,1,11.248,11h-9.5A1,1,0,0,1,.892,9.491L5.639,1.457A.991.991,0,0,1,6.5.966Z" transform="translate(5.446 -0.164)" fill="#707070"/>
      <g id="Polygon_1-3" data-name="Polygon 1" opacity="0.996">
        <path id="Polygon_1-4" data-name="Polygon 1" d="M6.247.86a1,1,0,0,1,1.505,0l4.8,5.481A1,1,0,0,1,11.8,8H2.2a1,1,0,0,1-.753-1.659Z" transform="translate(1.446 2.836)" fill="#fff"/>
        <path id="Polygon_1_-_Outline-2" data-name="Polygon 1 - Outline" d="M7,1.519H7L2.2,7H11.8L7,1.519H7m0-1A1,1,0,0,1,7.753.86l4.8,5.481A1,1,0,0,1,11.8,8H2.2a1,1,0,0,1-.753-1.658L6.247.86A1,1,0,0,1,7,.519Z" transform="translate(1.446 2.836)" fill="#707070"/>
      </g>
      <rect id="Rectangle_25-2" data-name="Rectangle 25" width="19" height="1" rx="0.5" transform="translate(0.446 9.836)" fill="#727272"/>
    </g>
    <g id="Group_23" data-name="Group 23" transform="translate(25.554 9.164)" opacity="0.616" style="mix-blend-mode: multiply;isolation: isolate">
      <g id="Ellipse_1-5" data-name="Ellipse 1" opacity="0.624">
        <ellipse id="Ellipse_1-6" data-name="Ellipse 1" cx="3.5" cy="4" rx="3.5" ry="4" transform="translate(4.446 -0.164)" fill="#fff"/>
        <path id="Ellipse_1_-_Outline-3" data-name="Ellipse 1 - Outline" d="M3.5,1A2.788,2.788,0,0,0,1,4,2.788,2.788,0,0,0,3.5,7,2.788,2.788,0,0,0,6,4,2.788,2.788,0,0,0,3.5,1m0-1A3.775,3.775,0,0,1,7,4,3.775,3.775,0,0,1,3.5,8,3.775,3.775,0,0,1,0,4,3.775,3.775,0,0,1,3.5,0Z" transform="translate(4.446 -0.164)" fill="#707070"/>
      </g>
      <path id="Polygon_2-3" data-name="Polygon 2" d="M5.639,1.457a1,1,0,0,1,1.722,0l4.748,8.034A1,1,0,0,1,11.248,11h-9.5A1,1,0,0,1,.892,9.491Z" transform="translate(5.446 -0.164)" fill="#535353"/>
      <path id="Polygon_2_-_Outline-3" data-name="Polygon 2 - Outline" d="M6.5,1.966h0L1.752,10h9.5L6.5,1.966m0-1a.991.991,0,0,1,.861.491l4.748,8.034A1,1,0,0,1,11.248,11h-9.5A1,1,0,0,1,.892,9.491L5.639,1.457A.991.991,0,0,1,6.5.966Z" transform="translate(5.446 -0.164)" fill="#707070"/>
      <g id="Polygon_1-5" data-name="Polygon 1" opacity="0.996">
        <path id="Polygon_1-6" data-name="Polygon 1" d="M6.247.86a1,1,0,0,1,1.505,0l4.8,5.481A1,1,0,0,1,11.8,8H2.2a1,1,0,0,1-.753-1.659Z" transform="translate(1.446 2.836)" fill="#fff"/>
        <path id="Polygon_1_-_Outline-3" data-name="Polygon 1 - Outline" d="M7,1.519H7L2.2,7H11.8L7,1.519H7m0-1A1,1,0,0,1,7.753.86l4.8,5.481A1,1,0,0,1,11.8,8H2.2a1,1,0,0,1-.753-1.658L6.247.86A1,1,0,0,1,7,.519Z" transform="translate(1.446 2.836)" fill="#707070"/>
      </g>
      <rect id="Rectangle_25-3" data-name="Rectangle 25" width="19" height="1" rx="0.5" transform="translate(0.446 9.836)" fill="#727272"/>
    </g>
    <g id="Group_24" data-name="Group 24" transform="translate(-0.446 9.164)" opacity="0.616" style="mix-blend-mode: multiply;isolation: isolate">
      <g id="Ellipse_1-7" data-name="Ellipse 1" opacity="0.624">
        <ellipse id="Ellipse_1-8" data-name="Ellipse 1" cx="3.5" cy="4" rx="3.5" ry="4" transform="translate(4.446 -0.164)" fill="#fff"/>
        <path id="Ellipse_1_-_Outline-4" data-name="Ellipse 1 - Outline" d="M3.5,1A2.788,2.788,0,0,0,1,4,2.788,2.788,0,0,0,3.5,7,2.788,2.788,0,0,0,6,4,2.788,2.788,0,0,0,3.5,1m0-1A3.775,3.775,0,0,1,7,4,3.775,3.775,0,0,1,3.5,8,3.775,3.775,0,0,1,0,4,3.775,3.775,0,0,1,3.5,0Z" transform="translate(4.446 -0.164)" fill="#707070"/>
      </g>
      <path id="Polygon_2-4" data-name="Polygon 2" d="M5.639,1.457a1,1,0,0,1,1.722,0l4.748,8.034A1,1,0,0,1,11.248,11h-9.5A1,1,0,0,1,.892,9.491Z" transform="translate(5.446 -0.164)" fill="#535353"/>
      <path id="Polygon_2_-_Outline-4" data-name="Polygon 2 - Outline" d="M6.5,1.966h0L1.752,10h9.5L6.5,1.966m0-1a.991.991,0,0,1,.861.491l4.748,8.034A1,1,0,0,1,11.248,11h-9.5A1,1,0,0,1,.892,9.491L5.639,1.457A.991.991,0,0,1,6.5.966Z" transform="translate(5.446 -0.164)" fill="#707070"/>
      <g id="Polygon_1-7" data-name="Polygon 1" opacity="0.996">
        <path id="Polygon_1-8" data-name="Polygon 1" d="M6.247.86a1,1,0,0,1,1.505,0l4.8,5.481A1,1,0,0,1,11.8,8H2.2a1,1,0,0,1-.753-1.659Z" transform="translate(1.446 2.836)" fill="#fff"/>
        <path id="Polygon_1_-_Outline-4" data-name="Polygon 1 - Outline" d="M7,1.519H7L2.2,7H11.8L7,1.519H7m0-1A1,1,0,0,1,7.753.86l4.8,5.481A1,1,0,0,1,11.8,8H2.2a1,1,0,0,1-.753-1.658L6.247.86A1,1,0,0,1,7,.519Z" transform="translate(1.446 2.836)" fill="#707070"/>
      </g>
      <rect id="Rectangle_25-4" data-name="Rectangle 25" width="19" height="1" rx="0.5" transform="translate(0.446 9.836)" fill="#727272"/>
    </g>
  </g>
</svg>
