<svg xmlns="http://www.w3.org/2000/svg" xmlns:xlink="http://www.w3.org/1999/xlink" width="45" height="45" viewBox="0 0 45 45">
  <defs>
    <clipPath id="clip-icon-page-hero">
      <rect width="45" height="45"/>
    </clipPath>
  </defs>
  <g id="icon-page-hero" clip-path="url(#clip-icon-page-hero)">
    <rect width="45" height="45" fill="#fff"/>
    <rect id="Rectangle_32" data-name="Rectangle 32" width="45" height="37" transform="translate(0 3)" fill="#feed45"/>
    <path id="Rectangle_32_-_Outline" data-name="Rectangle 32 - Outline" d="M1,1V36H44V1H1M0,0H45V37H0Z" transform="translate(0 3)" fill="#707070"/>
    <g id="Group_17" data-name="Group 17" transform="translate(4.926 15)">
      <rect id="Rectangle_19" data-name="Rectangle 19" width="19" height="2" rx="1" transform="translate(0.074 0)" fill="#101010"/>
      <rect id="Rectangle_20" data-name="Rectangle 20" width="18" height="2" rx="1" transform="translate(0.074 3)" fill="#101010"/>
    </g>
    <g id="Group_16" data-name="Group 16" transform="translate(4.926 23)">
      <rect id="Rectangle_21" data-name="Rectangle 21" width="14" height="1" rx="0.5" transform="translate(0.074 0)" fill="#101010"/>
      <rect id="Rectangle_22" data-name="Rectangle 22" width="15" height="1" rx="0.5" transform="translate(0.074 2)" fill="#101010"/>
      <rect id="Rectangle_24" data-name="Rectangle 24" width="13" height="1" rx="0.5" transform="translate(0.074 6)" fill="#101010"/>
      <rect id="Rectangle_23" data-name="Rectangle 23" width="14" height="1" rx="0.5" transform="translate(0.074 4)" fill="#101010"/>
    </g>
    <g id="Group_15" data-name="Group 15" transform="translate(17.554 12.164)" opacity="0.616">
      <g id="Ellipse_1" data-name="Ellipse 1" opacity="0.624">
        <ellipse id="Ellipse_1-2" data-name="Ellipse 1" cx="7" cy="7.5" rx="7" ry="7.5" transform="translate(7.446 -0.164)" fill="#fff"/>
        <path id="Ellipse_1_-_Outline" data-name="Ellipse 1 - Outline" d="M7,1A6.272,6.272,0,0,0,1,7.5,6.272,6.272,0,0,0,7,14a6.272,6.272,0,0,0,6-6.5A6.272,6.272,0,0,0,7,1M7,0a7.263,7.263,0,0,1,7,7.5A7.263,7.263,0,0,1,7,15,7.263,7.263,0,0,1,0,7.5,7.263,7.263,0,0,1,7,0Z" transform="translate(7.446 -0.164)" fill="#707070"/>
      </g>
      <path id="Polygon_2" data-name="Polygon 2" d="M11.641,1.444a1,1,0,0,1,1.719,0L24.1,19.489A1,1,0,0,1,23.241,21H1.759A1,1,0,0,1,.9,19.489Z" transform="translate(9.446 -0.164)" fill="#535353"/>
      <path id="Polygon_2_-_Outline" data-name="Polygon 2 - Outline" d="M12.5,1.955h0L1.759,20H23.241L12.5,1.955m0-1a.991.991,0,0,1,.859.489L24.1,19.489A1,1,0,0,1,23.241,21H1.759A1,1,0,0,1,.9,19.489L11.641,1.444A.991.991,0,0,1,12.5.955Z" transform="translate(9.446 -0.164)" fill="#707070"/>
      <g id="Polygon_1" data-name="Polygon 1" opacity="0.996">
        <path id="Polygon_1-2" data-name="Polygon 1" d="M12.244.872a1,1,0,0,1,1.511,0l10.81,12.473A1,1,0,0,1,23.81,15H2.19a1,1,0,0,1-.756-1.655Z" transform="translate(1.446 5.836)" fill="#fff"/>
        <path id="Polygon_1_-_Outline" data-name="Polygon 1 - Outline" d="M13,1.527,2.19,14H23.81L13,1.527h0m0-1a1,1,0,0,1,.756.345l10.81,12.473A1,1,0,0,1,23.81,15H2.19a1,1,0,0,1-.756-1.655L12.244.872A1,1,0,0,1,13,.527Z" transform="translate(1.446 5.836)" fill="#707070"/>
      </g>
      <rect id="Rectangle_25" data-name="Rectangle 25" width="35" height="2" rx="1" transform="translate(0.446 18.836)" fill="#727272"/>
    </g>
  </g>
</svg>
