<svg id="Layer_1" xmlns="http://www.w3.org/2000/svg" viewBox="0 0 50 50"><path d="m45.03,2.82H5.06c-2.52,0-4.57,2.05-4.57,4.57v35.29c0,2.52,2.05,4.57,4.57,4.57h39.97c2.52,0,4.57-2.05,4.57-4.57V7.39c0-2.52-2.05-4.57-4.57-4.57Zm2.23,39.86c0,1.23-1,2.23-2.23,2.23H5.06c-1.23,0-2.23-1-2.23-2.23V7.39c0-1.23,1-2.23,2.23-2.23h39.97c1.23,0,2.23,1,2.23,2.23v35.29Z" fill="#ccc" stroke-width="0"/><path d="m22.41,8.08H6.04c-.65,0-1.17.52-1.17,1.17v8.77c0,.31.12.61.34.83.22.22.52.34.83.34h16.37c.31,0,.61-.12.83-.34s.34-.52.34-.83v-8.77c0-.31-.12-.61-.34-.83s-.52-.34-.83-.34h0Z" stroke-width="0"/><rect x="7.21" y="10.42" width="14.03" height="6.43" fill="#d95a6b" stroke-width="0"/><path d="m22.41,20.95H6.04c-.65,0-1.17.52-1.17,1.17s.52,1.17,1.17,1.17h16.37c.65,0,1.17-.52,1.17-1.17s-.52-1.17-1.17-1.17Z" stroke-width="0"/><path d="m44.04,8.08h-16.37c-.65,0-1.17.52-1.17,1.17v8.77c0,.31.12.61.34.83s.52.34.83.34h16.37c.31,0,.61-.12.83-.34s.34-.52.34-.83v-8.77c0-.31-.12-.61-.34-.83s-.52-.34-.83-.34h0Z" stroke-width="0"/><rect x="28.84" y="10.42" width="14.03" height="6.43" fill="#fbad41" stroke-width="0"/><path d="m44.04,20.95h-16.37c-.65,0-1.17.52-1.17,1.17s.52,1.17,1.17,1.17h16.37c.65,0,1.17-.52,1.17-1.17s-.52-1.17-1.17-1.17Z" stroke-width="0"/><path d="m22.41,26.79H6.04c-.65,0-1.17.52-1.17,1.17v8.77c0,.31.12.61.34.83.22.22.52.34.83.34h16.37c.31,0,.61-.12.83-.34s.34-.52.34-.83v-8.77c0-.31-.12-.61-.34-.83s-.52-.34-.83-.34h0Z" stroke-width="0"/><rect x="7.21" y="29.13" width="14.03" height="6.43" fill="#58266b" stroke-width="0"/><path d="m22.41,39.65H6.04c-.65,0-1.17.52-1.17,1.17s.52,1.17,1.17,1.17h16.37c.65,0,1.17-.52,1.17-1.17s-.52-1.17-1.17-1.17Z" stroke-width="0"/><path d="m44.04,26.79h-16.37c-.65,0-1.17.52-1.17,1.17v8.77c0,.31.12.61.34.83s.52.34.83.34h16.37c.31,0,.61-.12.83-.34s.34-.52.34-.83v-8.77c0-.31-.12-.61-.34-.83s-.52-.34-.83-.34h0Z" stroke-width="0"/><rect x="28.84" y="29.13" width="14.03" height="6.43" fill="#2e95b9" stroke-width="0"/><path d="m44.04,39.65h-16.37c-.65,0-1.17.52-1.17,1.17s.52,1.17,1.17,1.17h16.37c.65,0,1.17-.52,1.17-1.17s-.52-1.17-1.17-1.17Z" stroke-width="0"/></svg>