<?xml version="1.0" encoding="UTF-8"?><svg id="Layer_3" xmlns="http://www.w3.org/2000/svg" viewBox="0 0 50 50"><path d="M25,31.53L6.1,20.85v20.15c0,2.24,1.81,4.05,4.05,4.05h29.7c2.24,0,4.05-1.81,4.05-4.05v-20.15l-18.9,10.68Z" fill="#58266b" stroke-width="0"/><path d="M12.09,21.91v-11.96c0-.56.45-1.01,1.01-1.01h23.8c.56,0,1.01.45,1.01,1.01v11.96l2.02-1.14,3.79-2.14-3.79-2.89v-5.79c0-1.68-1.36-3.04-3.04-3.04h-8.57l-3.32-2.53-3.33,2.53h-8.57c-1.68,0-3.04,1.36-3.04,3.04v5.79l-3.79,2.89,3.79,2.14,2.03,1.15Z" fill="#58266b" stroke-width="0"/><path d="M28.75,15.78c-.5-.3-1.69-.56-2.66-.56-3.16,0-5.04,2.36-5.04,4.98,0,1.79,1.02,2.88,2.47,2.88,1.1,0,2.03-.56,2.66-1.58h.06c.18,1.06.87,1.58,1.95,1.58,2.47,0,4.22-2.03,4.22-5.15,0-3.66-2.81-6.28-6.65-6.28-4.89,0-8.18,3.83-8.18,8.22s3.24,6.84,6.84,6.84c1.58,0,2.66-.17,4-.74,0,0,.89-.31.61-.99s-1-.4-1-.4c-.87.41-2.06.63-3.09.63-3.22,0-5.52-1.95-5.52-5.58,0-4.03,2.88-6.52,6.1-6.52s5.11,2.14,5.11,4.83c0,2.49-1.13,3.55-1.97,3.51-.56-.02-.67-.54-.5-1.62l.59-4.05ZM25.94,19.1c-.17,1.21-.87,1.97-1.49,1.97-.58,0-.89-.43-.89-1.19,0-1.47.93-2.71,2.14-2.71.17,0,.35.02.5.07l-.26,1.86Z" fill="#d95a6b" stroke-width="0"/></svg>