<svg xmlns="http://www.w3.org/2000/svg" xmlns:xlink="http://www.w3.org/1999/xlink" width="45" height="45" viewBox="0 0 45 45">
  <defs>
    <linearGradient id="linear-gradient" x1="0.5" x2="0.5" y2="1" gradientUnits="objectBoundingBox">
      <stop offset="0"/>
      <stop offset="1" stop-color="#545454"/>
    </linearGradient>
    <linearGradient id="linear-gradient-2" x1="0.5" x2="0.5" y2="1" gradientUnits="objectBoundingBox">
      <stop offset="0" stop-color="#d50501"/>
      <stop offset="1" stop-color="#6b0301"/>
    </linearGradient>
    <clipPath id="clip-icon-display-heros">
      <rect width="45" height="45"/>
    </clipPath>
  </defs>
  <g id="icon-display-heros" clip-path="url(#clip-icon-display-heros)">
    <rect width="45" height="45" fill="#fff"/>
    <path id="Path_87" data-name="Path 87" d="M0,0H41.016V20.8l-3.941,4.206-3.571,5.6H0Z" transform="translate(1.989 12.812)" fill="url(#linear-gradient)"/>
    <g id="np_fire-station_5419356_000000" transform="translate(21.066 18.014)">
      <path id="Path_84" data-name="Path 84" d="M34.255,23.37c-.055-.11.306-1.152.226-1.308-.367-.7.186-2.345.3-2.957l.191-.984a.49.49,0,0,0-.191-.5.5.5,0,0,0-.527-.045l-3.8,1.938-.005,0a7.86,7.86,0,0,0-.891-.891l0-.005L31.5,14.832a.51.51,0,0,0-.045-.532.5.5,0,0,0-.5-.191L30,14.3c-.648.1-2.164-.678-2.952-1.09-.166-.085-.311-.161-.427-.216a4.733,4.733,0,0,0-4.177,0c-.11.055-.246.126-.4.206-.7.367-2.345,1.22-2.957,1.1l-.984-.191a.5.5,0,0,0-.5.191.509.509,0,0,0-.045.532l1.938,3.791,0,.005a7.861,7.861,0,0,0-.891.891l-.005,0-3.8-1.938a.5.5,0,0,0-.527.045.49.49,0,0,0-.191.5l.191.984c.115.613-.738,2.259-1.1,2.957-.08.156-.151.291-.206.4a4.646,4.646,0,0,0-.005,4.172c.06.121.136.266.226.432a8.942,8.942,0,0,1,1.1,2.817c0,.045-.01.09-.01.115l-.191.984a.49.49,0,0,0,.191.5.5.5,0,0,0,.3.1.522.522,0,0,0,.226-.055l3.8-1.938.005,0a7.861,7.861,0,0,0,.891.891l0,.005-1.938,3.791a.509.509,0,0,0,.045.532.5.5,0,0,0,.5.191l.984-.191c.613-.12,2.254.738,2.957,1.1.156.08.291.151.4.206a4.643,4.643,0,0,0,2.089.5,4.713,4.713,0,0,0,2.089-.492l.427-.221a8.841,8.841,0,0,1,2.817-1.1c.05,0,.09.01.115.01l.828-.01a.49.49,0,0,1,0-.522c.114-.154.785-.53.7-.7l-1.938-3.089,0-.005a7.86,7.86,0,0,0,.891-.891l.005,0,3.361,1.4c.07.035.143,0,.223,0,.109,0,.126-.213.212-.278a1.32,1.32,0,0,0,.361-.821l.171.131a1.122,1.122,0,0,1-.015-.131c0-.7-.382-2.079,0-2.817.09-.166-.211-.316-.156-.432.663-1.314.3-1.952-.361-3.266Zm-9.726,7.459a6.282,6.282,0,1,1,4.436-1.84,6.281,6.281,0,0,1-4.436,1.84Z" transform="translate(-12.469 -12.504)" fill="#feed45"/>
      <path id="Path_85" data-name="Path 85" d="M43.7,44.986a3.413,3.413,0,0,0,2.664-4c-.929-3.726-5.13-5.059-5.094-4.752.228,1.949.432,3.031-1.125,4.8h0a1.81,1.81,0,0,0-.363,1.838A3.433,3.433,0,0,0,42.27,44.99,1.742,1.742,0,0,1,41.241,43.4a3.918,3.918,0,0,1,1.742-2.837A3.918,3.918,0,0,1,44.726,43.4,1.737,1.737,0,0,1,43.7,44.986Z" transform="translate(-30.933 -28.577)" fill="#fff"/>
    </g>
    <g id="np_calendar_803895_000000" transform="translate(1.036)">
      <path id="Path_81" data-name="Path 81" d="M44.05,14.082H42.569V16.72A3.472,3.472,0,0,1,39.1,20.193h-.225A3.472,3.472,0,0,1,35.4,16.72V14.082H17.609V16.72a3.472,3.472,0,0,1-3.473,3.473h-.225a3.472,3.472,0,0,1-3.473-3.473V14.082H8.871A3.873,3.873,0,0,0,5,17.955V49.51a3.874,3.874,0,0,0,3.873,3.873H38.8a2.444,2.444,0,0,0,1.772-.76l6.683-7.029a2.437,2.437,0,0,0,.673-1.682V17.955A3.874,3.874,0,0,0,44.05,14.082Zm1.805,28.96H41.023a2.848,2.848,0,0,0-2.839,2.839v5.435H8.873a1.807,1.807,0,0,1-1.805-1.805V22.038H45.853V43.043Z" transform="translate(-5 -9.039)" fill="url(#linear-gradient-2)"/>
      <path id="Path_82" data-name="Path 82" d="M21.741,13.172a1.983,1.983,0,0,0,1.98-1.98v-5.7a1.983,1.983,0,0,0-1.98-1.98h-.225a1.983,1.983,0,0,0-1.98,1.98v5.7a1.983,1.983,0,0,0,1.98,1.98Z" transform="translate(-12.603 -3.508)" fill="url(#linear-gradient-2)"/>
      <path id="Path_83" data-name="Path 83" d="M74.075,13.172a1.983,1.983,0,0,0,1.98-1.98l0-5.7a1.983,1.983,0,0,0-1.98-1.98h-.225a1.983,1.983,0,0,0-1.98,1.98v5.7a1.983,1.983,0,0,0,1.98,1.98Z" transform="translate(-39.979 -3.508)" fill="url(#linear-gradient-2)"/>
    </g>
    <rect id="Rectangle_46" data-name="Rectangle 46" width="4.769" height="4.769" rx="1" transform="translate(12.482 17.192)" fill="#fff" opacity="0.6"/>
    <rect id="Rectangle_47" data-name="Rectangle 47" width="4.769" height="4.769" rx="1" transform="translate(19.636 17.192)" fill="#fff" opacity="0.5"/>
    <rect id="Rectangle_49" data-name="Rectangle 49" width="4.769" height="4.769" rx="1" transform="translate(12.482 25.3)" fill="#fff" opacity="0.6"/>
    <rect id="Rectangle_45" data-name="Rectangle 45" width="4.769" height="4.769" rx="1" transform="translate(5.328 17.192)" fill="#fff" opacity="0.8"/>
    <rect id="Rectangle_48" data-name="Rectangle 48" width="4.769" height="4.769" rx="1" transform="translate(5.328 25.3)" fill="#fff" opacity="0.7"/>
    <rect id="Rectangle_44" data-name="Rectangle 44" width="4.769" height="4.769" rx="1" transform="translate(5.328 33.408)" fill="#fff" opacity="0.5"/>
  </g>
</svg>
